<svg width="400" height="120" viewBox="0 0 400 120" fill="none" xmlns="http://www.w3.org/2000/svg">
<g clip-path="url(#clip0_201_38)">
<path d="M82 15H28C18.0589 15 10 23.0589 10 33V87C10 96.9411 18.0589 105 28 105H82C91.9411 105 100 96.9411 100 87V33C100 23.0589 91.9411 15 82 15Z" fill="url(#paint0_linear_201_38)"/>
<path opacity="0.95" d="M84.25 27H25.75C23.6789 27 22 28.6789 22 30.75V45.75C22 47.8211 23.6789 49.5 25.75 49.5H84.25C86.3211 49.5 88 47.8211 88 45.75V30.75C88 28.6789 86.3211 27 84.25 27Z" fill="white"/>
<path opacity="0.75" d="M46.75 53.25H25.75C23.6789 53.25 22 54.9289 22 57V89.25C22 91.3211 23.6789 93 25.75 93H46.75C48.8211 93 50.5 91.3211 50.5 89.25V57C50.5 54.9289 48.8211 53.25 46.75 53.25Z" fill="white"/>
<path opacity="0.85" d="M84.25 53.25H58C55.9289 53.25 54.25 54.9289 54.25 57V66.75C54.25 68.8211 55.9289 70.5 58 70.5H84.25C86.3211 70.5 88 68.8211 88 66.75V57C88 54.9289 86.3211 53.25 84.25 53.25Z" fill="white"/>
<path opacity="0.55" d="M65.5 74.25H58C55.9289 74.25 54.25 75.9289 54.25 78V89.25C54.25 91.3211 55.9289 93 58 93H65.5C67.5711 93 69.25 91.3211 69.25 89.25V78C69.25 75.9289 67.5711 74.25 65.5 74.25Z" fill="white"/>
<path opacity="0.45" d="M84.25 74.25H76.75C74.6789 74.25 73 75.9289 73 78V89.25C73 91.3211 74.6789 93 76.75 93H84.25C86.3211 93 88 91.3211 88 89.25V78C88 75.9289 86.3211 74.25 84.25 74.25Z" fill="white"/>
<path d="M151.655 41.4219H143.567C143.419 40.3755 143.117 39.446 142.662 38.6335C142.206 37.8087 141.622 37.107 140.908 36.5284C140.194 35.9498 139.369 35.5066 138.433 35.1989C137.51 34.8911 136.507 34.7372 135.423 34.7372C133.466 34.7372 131.761 35.2235 130.308 36.196C128.856 37.1562 127.729 38.5597 126.929 40.4062C126.129 42.2405 125.729 44.4687 125.729 47.0909C125.729 49.7869 126.129 52.0521 126.929 53.8864C127.741 55.7206 128.874 57.1056 130.327 58.0412C131.779 58.9768 133.46 59.4446 135.368 59.4446C136.439 59.4446 137.43 59.303 138.341 59.0199C139.264 58.7367 140.083 58.3243 140.797 57.7827C141.511 57.2287 142.102 56.5578 142.57 55.7699C143.05 54.982 143.382 54.0833 143.567 53.0739L151.655 53.1108C151.446 54.8466 150.922 56.5208 150.085 58.1335C149.26 59.7339 148.146 61.1681 146.743 62.4361C145.352 63.6918 143.69 64.6889 141.757 65.4276C139.837 66.1539 137.664 66.517 135.239 66.517C131.866 66.517 128.849 65.7538 126.19 64.2273C123.544 62.7008 121.451 60.491 119.912 57.598C118.385 54.705 117.622 51.2027 117.622 47.0909C117.622 42.9669 118.398 39.4583 119.949 36.5653C121.5 33.6723 123.605 31.4687 126.264 29.9545C128.923 28.428 131.915 27.6648 135.239 27.6648C137.43 27.6648 139.461 27.9725 141.332 28.5881C143.216 29.2036 144.884 30.1023 146.337 31.2841C147.789 32.4536 148.971 33.8878 149.882 35.5866C150.805 37.2855 151.396 39.2306 151.655 41.4219ZM175.43 53.9233V37.6364H183.296V66H175.744V60.848H175.448C174.808 62.5099 173.743 63.8456 172.254 64.8551C170.776 65.8646 168.973 66.3693 166.843 66.3693C164.947 66.3693 163.279 65.9384 161.839 65.0767C160.398 64.215 159.272 62.9901 158.46 61.402C157.659 59.8139 157.253 57.9119 157.241 55.696V37.6364H165.107V54.2926C165.12 55.9669 165.569 57.2902 166.455 58.2628C167.342 59.2353 168.53 59.7216 170.019 59.7216C170.967 59.7216 171.853 59.5062 172.678 59.0753C173.503 58.6321 174.168 57.9796 174.673 57.1179C175.19 56.2562 175.442 55.1913 175.43 53.9233ZM204.675 37.6364V43.5455H187.594V37.6364H204.675ZM191.472 30.8409H199.338V57.2841C199.338 58.0104 199.449 58.5767 199.671 58.983C199.892 59.3769 200.2 59.6539 200.594 59.8139C201 59.974 201.468 60.054 201.998 60.054C202.367 60.054 202.736 60.0232 203.105 59.9616C203.475 59.8878 203.758 59.8324 203.955 59.7955L205.192 65.6491C204.798 65.7723 204.244 65.9138 203.53 66.0739C202.816 66.2462 201.948 66.3509 200.926 66.3878C199.031 66.4616 197.369 66.2093 195.941 65.6307C194.525 65.0521 193.423 64.1534 192.635 62.9347C191.847 61.7159 191.46 60.1771 191.472 58.3182V30.8409Z" fill="white"/>
<path d="M247.489 47.0909C247.489 51.0795 246.768 54.5265 245.328 57.4318C243.888 60.3371 241.912 62.5777 239.401 64.1534C236.889 65.7292 234.021 66.517 230.795 66.517C227.57 66.517 224.702 65.7292 222.19 64.1534C219.679 62.5777 217.703 60.3371 216.263 57.4318C214.822 54.5265 214.102 51.0795 214.102 47.0909C214.102 43.1023 214.822 39.6553 216.263 36.75C217.703 33.8447 219.679 31.6042 222.19 30.0284C224.702 28.4527 227.57 27.6648 230.795 27.6648C234.021 27.6648 236.889 28.4527 239.401 30.0284C241.912 31.6042 243.888 33.8447 245.328 36.75C246.768 39.6553 247.489 43.1023 247.489 47.0909ZM243.057 47.0909C243.057 43.8163 242.509 41.0526 241.413 38.7997C240.33 36.5469 238.859 34.8419 237 33.6847C235.153 32.5275 233.085 31.9489 230.795 31.9489C228.506 31.9489 226.431 32.5275 224.572 33.6847C222.726 34.8419 221.255 36.5469 220.159 38.7997C219.076 41.0526 218.534 43.8163 218.534 47.0909C218.534 50.3655 219.076 53.1293 220.159 55.3821C221.255 57.6349 222.726 59.34 224.572 60.4972C226.431 61.6544 228.506 62.233 230.795 62.233C233.085 62.233 235.153 61.6544 237 60.4972C238.859 59.34 240.33 57.6349 241.413 55.3821C242.509 53.1293 243.057 50.3655 243.057 47.0909ZM254.598 76.6364V37.6364H258.808V42.142H259.325C259.645 41.6496 260.089 41.0218 260.655 40.2585C261.233 39.483 262.058 38.7936 263.129 38.1903C264.213 37.5748 265.678 37.267 267.524 37.267C269.912 37.267 272.018 37.8641 273.839 39.0582C275.661 40.2524 277.083 41.9451 278.105 44.1364C279.127 46.3277 279.638 48.9129 279.638 51.892C279.638 54.8958 279.127 57.4995 278.105 59.7031C277.083 61.8944 275.668 63.5933 273.858 64.7997C272.048 65.9938 269.962 66.5909 267.598 66.5909C265.776 66.5909 264.317 66.2893 263.222 65.6861C262.126 65.0705 261.283 64.375 260.692 63.5994C260.101 62.8116 259.645 62.1591 259.325 61.642H258.956V76.6364H254.598ZM258.882 51.8182C258.882 53.9602 259.196 55.8499 259.824 57.4872C260.452 59.1122 261.369 60.3864 262.575 61.3097C263.782 62.2206 265.259 62.6761 267.007 62.6761C268.829 62.6761 270.349 62.196 271.568 61.2358C272.799 60.2633 273.723 58.9583 274.338 57.321C274.966 55.6714 275.28 53.8371 275.28 51.8182C275.28 49.8239 274.972 48.0265 274.357 46.4261C273.753 44.8134 272.836 43.5393 271.605 42.6037C270.386 41.6558 268.854 41.1818 267.007 41.1818C265.234 41.1818 263.745 41.6312 262.538 42.5298C261.332 43.4162 260.421 44.6596 259.805 46.2599C259.19 47.848 258.882 49.7008 258.882 51.8182ZM298.621 37.6364V41.3295H283.922V37.6364H298.621ZM288.206 30.8409H292.564V57.875C292.564 59.1061 292.742 60.0294 293.099 60.6449C293.469 61.2481 293.937 61.6544 294.503 61.8636C295.081 62.0606 295.691 62.1591 296.331 62.1591C296.811 62.1591 297.205 62.1345 297.513 62.0852C297.821 62.0237 298.067 61.9744 298.251 61.9375L299.138 65.8523C298.842 65.9631 298.43 66.0739 297.901 66.1847C297.371 66.3078 296.7 66.3693 295.888 66.3693C294.657 66.3693 293.45 66.1046 292.268 65.5753C291.099 65.0459 290.126 64.2396 289.351 63.1562C288.588 62.0729 288.206 60.7064 288.206 59.0568V30.8409ZM305.176 66V37.6364H309.534V66H305.176ZM307.392 32.9091C306.543 32.9091 305.81 32.6198 305.195 32.0412C304.591 31.4626 304.29 30.767 304.29 29.9545C304.29 29.142 304.591 28.4465 305.195 27.8679C305.81 27.2893 306.543 27 307.392 27C308.241 27 308.968 27.2893 309.571 27.8679C310.187 28.4465 310.494 29.142 310.494 29.9545C310.494 30.767 310.187 31.4626 309.571 32.0412C308.968 32.6198 308.241 32.9091 307.392 32.9091ZM317.516 66V37.6364H321.726V42.0682H322.096C322.686 40.554 323.641 39.3783 324.958 38.5412C326.275 37.6918 327.857 37.267 329.703 37.267C331.575 37.267 333.132 37.6918 334.375 38.5412C335.631 39.3783 336.61 40.554 337.311 42.0682H337.607C338.333 40.6032 339.423 39.4399 340.875 38.5781C342.328 37.7041 344.07 37.267 346.101 37.267C348.637 37.267 350.712 38.0611 352.324 39.6491C353.937 41.2249 354.743 43.6809 354.743 47.017V66H350.385V47.017C350.385 44.9242 349.813 43.4285 348.668 42.5298C347.523 41.6312 346.175 41.1818 344.624 41.1818C342.63 41.1818 341.085 41.785 339.989 42.9915C338.893 44.1856 338.346 45.6998 338.346 47.5341V66H333.914V46.5739C333.914 44.9612 333.391 43.6624 332.344 42.6776C331.298 41.6804 329.95 41.1818 328.3 41.1818C327.167 41.1818 326.109 41.4834 325.124 42.0866C324.151 42.6899 323.364 43.527 322.76 44.598C322.169 45.6567 321.874 46.8816 321.874 48.2727V66H317.516ZM371.058 66.6648C369.261 66.6648 367.629 66.3262 366.164 65.6491C364.699 64.9598 363.536 63.9688 362.674 62.6761C361.813 61.3712 361.382 59.7955 361.382 57.9489C361.382 56.3239 361.702 55.0066 362.342 53.9972C362.982 52.9754 363.838 52.1752 364.909 51.5966C365.98 51.018 367.162 50.5871 368.454 50.304C369.759 50.0085 371.07 49.7746 372.387 49.6023C374.111 49.3807 375.508 49.2145 376.579 49.1037C377.663 48.9806 378.45 48.7775 378.943 48.4943C379.448 48.2112 379.7 47.7187 379.7 47.017V46.8693C379.7 45.0473 379.201 43.6316 378.204 42.6222C377.219 41.6127 375.724 41.108 373.717 41.108C371.636 41.108 370.005 41.5634 368.824 42.4744C367.642 43.3854 366.811 44.358 366.331 45.392L362.194 43.9148C362.933 42.1913 363.918 40.8494 365.149 39.8892C366.392 38.9167 367.746 38.2396 369.211 37.858C370.689 37.464 372.141 37.267 373.569 37.267C374.48 37.267 375.527 37.3778 376.708 37.5994C377.903 37.8087 379.054 38.2457 380.162 38.9105C381.282 39.5753 382.211 40.5786 382.95 41.9205C383.689 43.2623 384.058 45.0597 384.058 47.3125V66H379.7V62.1591H379.478C379.183 62.7746 378.69 63.4332 378.001 64.1349C377.312 64.8366 376.395 65.4337 375.25 65.9261C374.105 66.4186 372.708 66.6648 371.058 66.6648ZM371.723 62.75C373.446 62.75 374.899 62.4115 376.081 61.7344C377.275 61.0573 378.173 60.1832 378.777 59.1122C379.392 58.0412 379.7 56.9148 379.7 55.733V51.7443C379.515 51.9659 379.109 52.169 378.481 52.3537C377.866 52.526 377.152 52.6799 376.339 52.8153C375.539 52.9384 374.757 53.0492 373.994 53.1477C373.243 53.2339 372.634 53.3078 372.166 53.3693C371.033 53.517 369.975 53.7571 368.99 54.0895C368.017 54.4096 367.229 54.8958 366.626 55.5483C366.035 56.1884 365.74 57.0625 365.74 58.1705C365.74 59.6847 366.3 60.8295 367.42 61.6051C368.553 62.3684 369.987 62.75 371.723 62.75Z" fill="#4A9EFF"/>
<path d="M126.122 87.2727C126.122 88.2699 125.942 89.1316 125.582 89.858C125.222 90.5843 124.728 91.1444 124.1 91.5384C123.472 91.9323 122.755 92.1293 121.949 92.1293C121.143 92.1293 120.425 91.9323 119.798 91.5384C119.17 91.1444 118.676 90.5843 118.316 89.858C117.956 89.1316 117.776 88.2699 117.776 87.2727C117.776 86.2756 117.956 85.4138 118.316 84.6875C118.676 83.9612 119.17 83.401 119.798 83.0071C120.425 82.6132 121.143 82.4162 121.949 82.4162C122.755 82.4162 123.472 82.6132 124.1 83.0071C124.728 83.401 125.222 83.9612 125.582 84.6875C125.942 85.4138 126.122 86.2756 126.122 87.2727ZM125.014 87.2727C125.014 86.4541 124.877 85.7631 124.603 85.1999C124.333 84.6367 123.965 84.2105 123.5 83.9212C123.038 83.6319 122.521 83.4872 121.949 83.4872C121.376 83.4872 120.858 83.6319 120.393 83.9212C119.931 84.2105 119.564 84.6367 119.29 85.1999C119.019 85.7631 118.884 86.4541 118.884 87.2727C118.884 88.0914 119.019 88.7823 119.29 89.3455C119.564 89.9087 119.931 90.335 120.393 90.6243C120.858 90.9136 121.376 91.0582 121.949 91.0582C122.521 91.0582 123.038 90.9136 123.5 90.6243C123.965 90.335 124.333 89.9087 124.603 89.3455C124.877 88.7823 125.014 88.0914 125.014 87.2727ZM128.047 92V82.5455H131.242C131.984 82.5455 132.59 82.6793 133.061 82.9471C133.535 83.2118 133.886 83.5703 134.113 84.0227C134.341 84.4751 134.455 84.9799 134.455 85.5369C134.455 86.094 134.341 86.6003 134.113 87.0558C133.889 87.5112 133.541 87.8744 133.07 88.1452C132.599 88.413 131.996 88.5469 131.26 88.5469H128.971V87.5312H131.223C131.731 87.5312 132.139 87.4435 132.447 87.2681C132.754 87.0927 132.978 86.8557 133.116 86.5572C133.258 86.2556 133.328 85.9155 133.328 85.5369C133.328 85.1584 133.258 84.8198 133.116 84.5213C132.978 84.2228 132.753 83.9889 132.442 83.8196C132.131 83.6473 131.719 83.5611 131.205 83.5611H129.192V92H128.047ZM135.782 83.5611V82.5455H142.873V83.5611H139.9V92H138.755V83.5611H135.782ZM145.785 82.5455V92H144.64V82.5455H145.785ZM148.08 82.5455H149.447L152.66 90.3935H152.771L155.984 82.5455H157.35V92H156.279V84.8168H156.187L153.232 92H152.198L149.244 84.8168H149.151V92H148.08V82.5455ZM160.791 82.5455V92H159.646V82.5455H160.791ZM168.257 84.9091C168.201 84.4413 167.977 84.0781 167.583 83.8196C167.189 83.5611 166.706 83.4318 166.133 83.4318C165.715 83.4318 165.348 83.4995 165.034 83.6349C164.724 83.7704 164.48 83.9566 164.305 84.1935C164.133 84.4305 164.047 84.6998 164.047 85.0014C164.047 85.2538 164.107 85.4708 164.227 85.6523C164.35 85.8308 164.507 85.9801 164.697 86.1001C164.888 86.2171 165.088 86.314 165.298 86.391C165.507 86.4648 165.699 86.5249 165.875 86.571L166.835 86.8295C167.081 86.8942 167.355 86.9834 167.657 87.0973C167.961 87.2112 168.252 87.3666 168.529 87.5636C168.809 87.7575 169.04 88.0067 169.222 88.3114C169.403 88.6161 169.494 88.9901 169.494 89.4332C169.494 89.9441 169.36 90.4058 169.092 90.8182C168.828 91.2306 168.44 91.5584 167.929 91.8015C167.421 92.0446 166.804 92.1662 166.078 92.1662C165.401 92.1662 164.814 92.0569 164.319 91.8384C163.826 91.6199 163.439 91.3152 163.156 90.9244C162.875 90.5335 162.717 90.0795 162.68 89.5625H163.862C163.893 89.9195 164.013 90.215 164.222 90.4489C164.434 90.6797 164.702 90.852 165.025 90.9659C165.351 91.0767 165.702 91.1321 166.078 91.1321C166.515 91.1321 166.907 91.0613 167.255 90.9197C167.603 90.7751 167.878 90.575 168.081 90.3196C168.284 90.0611 168.386 89.7595 168.386 89.4148C168.386 89.1009 168.298 88.8454 168.123 88.6484C167.947 88.4515 167.717 88.2914 167.43 88.1683C167.144 88.0452 166.835 87.9375 166.502 87.8452L165.339 87.5128C164.6 87.3004 164.016 86.9973 163.585 86.6033C163.154 86.2094 162.939 85.6939 162.939 85.0568C162.939 84.5275 163.082 84.0658 163.368 83.6719C163.657 83.2749 164.045 82.9671 164.531 82.7486C165.021 82.527 165.567 82.4162 166.17 82.4162C166.779 82.4162 167.321 82.5254 167.795 82.744C168.269 82.9594 168.645 83.2549 168.922 83.6303C169.202 84.0058 169.349 84.4321 169.365 84.9091H168.257ZM171.764 92H170.564L174.035 82.5455H175.217L178.689 92H177.489L174.663 84.0412H174.589L171.764 92ZM172.207 88.3068H177.045V89.3224H172.207V88.3068ZM178.54 83.5611V82.5455H185.631V83.5611H182.658V92H181.513V83.5611H178.54ZM188.543 82.5455V92H187.398V82.5455H188.543ZM198.816 87.2727C198.816 88.2699 198.635 89.1316 198.275 89.858C197.915 90.5843 197.421 91.1444 196.794 91.5384C196.166 91.9323 195.449 92.1293 194.642 92.1293C193.836 92.1293 193.119 91.9323 192.491 91.5384C191.863 91.1444 191.369 90.5843 191.009 89.858C190.649 89.1316 190.469 88.2699 190.469 87.2727C190.469 86.2756 190.649 85.4138 191.009 84.6875C191.369 83.9612 191.863 83.401 192.491 83.0071C193.119 82.6132 193.836 82.4162 194.642 82.4162C195.449 82.4162 196.166 82.6132 196.794 83.0071C197.421 83.401 197.915 83.9612 198.275 84.6875C198.635 85.4138 198.816 86.2756 198.816 87.2727ZM197.708 87.2727C197.708 86.4541 197.571 85.7631 197.297 85.1999C197.026 84.6367 196.658 84.2105 196.193 83.9212C195.732 83.6319 195.215 83.4872 194.642 83.4872C194.07 83.4872 193.551 83.6319 193.086 83.9212C192.625 84.2105 192.257 84.6367 191.983 85.1999C191.712 85.7631 191.577 86.4541 191.577 87.2727C191.577 88.0914 191.712 88.7823 191.983 89.3455C192.257 89.9087 192.625 90.335 193.086 90.6243C193.551 90.9136 194.07 91.0582 194.642 91.0582C195.215 91.0582 195.732 90.9136 196.193 90.6243C196.658 90.335 197.026 89.9087 197.297 89.3455C197.571 88.7823 197.708 88.0914 197.708 87.2727ZM208.238 82.5455V92H207.13L201.978 84.5767H201.885V92H200.741V82.5455H201.849L207.019 89.9872H207.111V82.5455H208.238ZM217.103 92H214.185V82.5455H217.232C218.149 82.5455 218.934 82.7347 219.586 83.1133C220.239 83.4888 220.739 84.0289 221.087 84.7337C221.434 85.4354 221.608 86.2756 221.608 87.2543C221.608 88.2391 221.433 89.087 221.082 89.7979C220.731 90.5058 220.22 91.0505 219.549 91.4322C218.878 91.8107 218.063 92 217.103 92ZM215.33 90.9844H217.029C217.81 90.9844 218.458 90.8336 218.972 90.532C219.486 90.2304 219.869 89.801 220.122 89.244C220.374 88.6869 220.5 88.0237 220.5 87.2543C220.5 86.491 220.376 85.8339 220.126 85.283C219.877 84.729 219.505 84.3043 219.009 84.0089C218.514 83.7103 217.897 83.5611 217.158 83.5611H215.33V90.9844ZM223.529 92V82.5455H229.235V83.5611H224.674V86.7557H228.939V87.7713H224.674V90.9844H229.309V92H223.529ZM237.872 92H234.954V82.5455H238.001C238.918 82.5455 239.703 82.7347 240.356 83.1133C241.008 83.4888 241.508 84.0289 241.856 84.7337C242.204 85.4354 242.378 86.2756 242.378 87.2543C242.378 88.2391 242.202 89.087 241.851 89.7979C241.501 90.5058 240.99 91.0505 240.319 91.4322C239.648 91.8107 238.832 92 237.872 92ZM236.099 90.9844H237.798C238.58 90.9844 239.228 90.8336 239.742 90.532C240.256 90.2304 240.639 89.801 240.891 89.244C241.144 88.6869 241.27 88.0237 241.27 87.2543C241.27 86.491 241.145 85.8339 240.896 85.283C240.647 84.729 240.274 84.3043 239.779 84.0089C239.283 83.7103 238.666 83.5611 237.927 83.5611H236.099V90.9844ZM244.298 92V82.5455H250.004V83.5611H245.443V86.7557H249.709V87.7713H245.443V90.9844H250.078V92H244.298ZM246.643 81.5852L247.77 79.4432H249.044L247.604 81.5852H246.643ZM259.676 85.5H258.531C258.463 85.1707 258.345 84.8814 258.175 84.6321C258.009 84.3828 257.806 84.1735 257.566 84.0043C257.329 83.8319 257.066 83.7027 256.777 83.6165C256.487 83.5303 256.186 83.4872 255.872 83.4872C255.299 83.4872 254.781 83.6319 254.316 83.9212C253.854 84.2105 253.487 84.6367 253.213 85.1999C252.942 85.7631 252.806 86.4541 252.806 87.2727C252.806 88.0914 252.942 88.7823 253.213 89.3455C253.487 89.9087 253.854 90.335 254.316 90.6243C254.781 90.9136 255.299 91.0582 255.872 91.0582C256.186 91.0582 256.487 91.0152 256.777 90.929C257.066 90.8428 257.329 90.7151 257.566 90.5458C257.806 90.3735 258.009 90.1626 258.175 89.9134C258.345 89.661 258.463 89.3717 258.531 89.0455H259.676C259.59 89.5286 259.433 89.9611 259.205 90.3427C258.977 90.7243 258.694 91.049 258.355 91.3168C258.017 91.5814 257.637 91.783 257.215 91.9215C256.797 92.06 256.349 92.1293 255.872 92.1293C255.065 92.1293 254.348 91.9323 253.72 91.5384C253.093 91.1444 252.599 90.5843 252.239 89.858C251.878 89.1316 251.698 88.2699 251.698 87.2727C251.698 86.2756 251.878 85.4138 252.239 84.6875C252.599 83.9612 253.093 83.401 253.72 83.0071C254.348 82.6132 255.065 82.4162 255.872 82.4162C256.349 82.4162 256.797 82.4854 257.215 82.6239C257.637 82.7624 258.017 82.9656 258.355 83.2333C258.694 83.498 258.977 83.8211 259.205 84.2028C259.433 84.5813 259.59 85.0137 259.676 85.5ZM269.503 87.2727C269.503 88.2699 269.323 89.1316 268.963 89.858C268.603 90.5843 268.109 91.1444 267.481 91.5384C266.853 91.9323 266.136 92.1293 265.33 92.1293C264.523 92.1293 263.806 91.9323 263.178 91.5384C262.551 91.1444 262.057 90.5843 261.697 89.858C261.336 89.1316 261.156 88.2699 261.156 87.2727C261.156 86.2756 261.336 85.4138 261.697 84.6875C262.057 83.9612 262.551 83.401 263.178 83.0071C263.806 82.6132 264.523 82.4162 265.33 82.4162C266.136 82.4162 266.853 82.6132 267.481 83.0071C268.109 83.401 268.603 83.9612 268.963 84.6875C269.323 85.4138 269.503 86.2756 269.503 87.2727ZM268.395 87.2727C268.395 86.4541 268.258 85.7631 267.984 85.1999C267.713 84.6367 267.346 84.2105 266.881 83.9212C266.419 83.6319 265.902 83.4872 265.33 83.4872C264.757 83.4872 264.239 83.6319 263.774 83.9212C263.312 84.2105 262.945 84.6367 262.671 85.1999C262.4 85.7631 262.264 86.4541 262.264 87.2727C262.264 88.0914 262.4 88.7823 262.671 89.3455C262.945 89.9087 263.312 90.335 263.774 90.6243C264.239 90.9136 264.757 91.0582 265.33 91.0582C265.902 91.0582 266.419 90.9136 266.881 90.6243C267.346 90.335 267.713 89.9087 267.984 89.3455C268.258 88.7823 268.395 88.0914 268.395 87.2727ZM277.633 82.5455H278.778V88.8054C278.778 89.4517 278.625 90.0288 278.32 90.5366C278.019 91.0413 277.593 91.4399 277.042 91.7322C276.491 92.0215 275.845 92.1662 275.103 92.1662C274.361 92.1662 273.715 92.0215 273.164 91.7322C272.613 91.4399 272.185 91.0413 271.881 90.5366C271.579 90.0288 271.428 89.4517 271.428 88.8054V82.5455H272.573V88.7131C272.573 89.1747 272.675 89.5856 272.878 89.9457C273.081 90.3027 273.37 90.5843 273.746 90.7905C274.124 90.9936 274.577 91.0952 275.103 91.0952C275.629 91.0952 276.081 90.9936 276.46 90.7905C276.839 90.5843 277.128 90.3027 277.328 89.9457C277.531 89.5856 277.633 89.1747 277.633 88.7131V82.5455ZM281.064 92V82.5455H284.258C285 82.5455 285.606 82.6793 286.077 82.9471C286.551 83.2118 286.902 83.5703 287.13 84.0227C287.358 84.4751 287.472 84.9799 287.472 85.5369C287.472 86.094 287.358 86.6003 287.13 87.0558C286.905 87.5112 286.557 87.8744 286.087 88.1452C285.616 88.413 285.012 88.5469 284.277 88.5469H281.987V87.5312H284.24C284.748 87.5312 285.156 87.4435 285.463 87.2681C285.771 87.0927 285.994 86.8557 286.133 86.5572C286.274 86.2556 286.345 85.9155 286.345 85.5369C286.345 85.1584 286.274 84.8198 286.133 84.5213C285.994 84.2228 285.77 83.9889 285.459 83.8196C285.148 83.6473 284.735 83.5611 284.222 83.5611H282.209V92H281.064ZM289.316 92V82.5455H295.022V83.5611H290.461V86.7557H294.726V87.7713H290.461V90.9844H295.096V92H289.316Z" fill="#6B7B8D"/>
</g>
<defs>
<linearGradient id="paint0_linear_201_38" x1="10" y1="15" x2="9010" y2="9015" gradientUnits="userSpaceOnUse">
<stop stop-color="#1A6BCE"/>
<stop offset="1" stop-color="#0D4A9E"/>
</linearGradient>
<clipPath id="clip0_201_38">
<rect width="400" height="120" fill="white"/>
</clipPath>
</defs>
</svg>
