<svg width="400" height="120" viewBox="0 0 400 120" fill="none" xmlns="http://www.w3.org/2000/svg">
<g clip-path="url(#clip0_197_3)">
<path d="M82 15H28C18.0589 15 10 23.0589 10 33V87C10 96.9411 18.0589 105 28 105H82C91.9411 105 100 96.9411 100 87V33C100 23.0589 91.9411 15 82 15Z" fill="url(#paint0_linear_197_3)"/>
<path opacity="0.95" d="M84.25 27H25.75C23.6789 27 22 28.6789 22 30.75V45.75C22 47.8211 23.6789 49.5 25.75 49.5H84.25C86.3211 49.5 88 47.8211 88 45.75V30.75C88 28.6789 86.3211 27 84.25 27Z" fill="white"/>
<path opacity="0.75" d="M46.75 53.25H25.75C23.6789 53.25 22 54.9289 22 57V89.25C22 91.3211 23.6789 93 25.75 93H46.75C48.8211 93 50.5 91.3211 50.5 89.25V57C50.5 54.9289 48.8211 53.25 46.75 53.25Z" fill="white"/>
<path opacity="0.85" d="M84.25 53.25H58C55.9289 53.25 54.25 54.9289 54.25 57V66.75C54.25 68.8211 55.9289 70.5 58 70.5H84.25C86.3211 70.5 88 68.8211 88 66.75V57C88 54.9289 86.3211 53.25 84.25 53.25Z" fill="white"/>
<path opacity="0.55" d="M65.5 74.25H58C55.9289 74.25 54.25 75.9289 54.25 78V89.25C54.25 91.3211 55.9289 93 58 93H65.5C67.5711 93 69.25 91.3211 69.25 89.25V78C69.25 75.9289 67.5711 74.25 65.5 74.25Z" fill="white"/>
<path opacity="0.45" d="M84.25 74.25H76.75C74.6789 74.25 73 75.9289 73 78V89.25C73 91.3211 74.6789 93 76.75 93H84.25C86.3211 93 88 91.3211 88 89.25V78C88 75.9289 86.3211 74.25 84.25 74.25Z" fill="white"/>
<path d="M151.655 41.4219H143.567C143.419 40.3755 143.117 39.446 142.662 38.6335C142.206 37.8087 141.622 37.107 140.908 36.5284C140.194 35.9498 139.369 35.5066 138.433 35.1989C137.51 34.8911 136.507 34.7372 135.423 34.7372C133.466 34.7372 131.761 35.2235 130.308 36.196C128.856 37.1562 127.729 38.5597 126.929 40.4062C126.129 42.2405 125.729 44.4687 125.729 47.0909C125.729 49.7869 126.129 52.0521 126.929 53.8864C127.741 55.7206 128.874 57.1056 130.327 58.0412C131.779 58.9768 133.46 59.4446 135.368 59.4446C136.439 59.4446 137.43 59.303 138.341 59.0199C139.264 58.7367 140.083 58.3243 140.797 57.7827C141.511 57.2287 142.102 56.5578 142.57 55.7699C143.05 54.982 143.382 54.0833 143.567 53.0739L151.655 53.1108C151.446 54.8466 150.922 56.5208 150.085 58.1335C149.26 59.7339 148.146 61.1681 146.743 62.4361C145.352 63.6918 143.69 64.6889 141.757 65.4276C139.837 66.1539 137.664 66.517 135.239 66.517C131.866 66.517 128.849 65.7538 126.19 64.2273C123.544 62.7008 121.451 60.491 119.912 57.598C118.385 54.705 117.622 51.2027 117.622 47.0909C117.622 42.9669 118.398 39.4583 119.949 36.5653C121.5 33.6723 123.605 31.4687 126.264 29.9545C128.923 28.428 131.915 27.6648 135.239 27.6648C137.43 27.6648 139.461 27.9725 141.332 28.5881C143.216 29.2036 144.884 30.1023 146.337 31.2841C147.789 32.4536 148.971 33.8878 149.882 35.5866C150.805 37.2855 151.396 39.2306 151.655 41.4219ZM175.43 53.9233V37.6364H183.296V66H175.744V60.848H175.448C174.808 62.5099 173.743 63.8456 172.254 64.8551C170.776 65.8646 168.973 66.3693 166.843 66.3693C164.947 66.3693 163.279 65.9384 161.839 65.0767C160.398 64.215 159.272 62.9901 158.46 61.402C157.659 59.8139 157.253 57.9119 157.241 55.696V37.6364H165.107V54.2926C165.12 55.9669 165.569 57.2902 166.455 58.2628C167.342 59.2353 168.53 59.7216 170.019 59.7216C170.967 59.7216 171.853 59.5062 172.678 59.0753C173.503 58.6321 174.168 57.9796 174.673 57.1179C175.19 56.2562 175.442 55.1913 175.43 53.9233ZM204.675 37.6364V43.5455H187.594V37.6364H204.675ZM191.472 30.8409H199.338V57.2841C199.338 58.0104 199.449 58.5767 199.671 58.983C199.892 59.3769 200.2 59.6539 200.594 59.8139C201 59.974 201.468 60.054 201.998 60.054C202.367 60.054 202.736 60.0232 203.105 59.9616C203.475 59.8878 203.758 59.8324 203.955 59.7955L205.192 65.6491C204.798 65.7723 204.244 65.9138 203.53 66.0739C202.816 66.2462 201.948 66.3509 200.926 66.3878C199.031 66.4616 197.369 66.2093 195.941 65.6307C194.525 65.0521 193.423 64.1534 192.635 62.9347C191.847 61.7159 191.46 60.1771 191.472 58.3182V30.8409Z" fill="white"/>
<path d="M247.489 47.0909C247.489 51.0795 246.768 54.5265 245.328 57.4318C243.888 60.3371 241.912 62.5777 239.401 64.1534C236.889 65.7292 234.021 66.517 230.795 66.517C227.57 66.517 224.702 65.7292 222.19 64.1534C219.679 62.5777 217.703 60.3371 216.263 57.4318C214.822 54.5265 214.102 51.0795 214.102 47.0909C214.102 43.1023 214.822 39.6553 216.263 36.75C217.703 33.8447 219.679 31.6042 222.19 30.0284C224.702 28.4527 227.57 27.6648 230.795 27.6648C234.021 27.6648 236.889 28.4527 239.401 30.0284C241.912 31.6042 243.888 33.8447 245.328 36.75C246.768 39.6553 247.489 43.1023 247.489 47.0909ZM243.057 47.0909C243.057 43.8163 242.509 41.0526 241.413 38.7997C240.33 36.5469 238.859 34.8419 237 33.6847C235.153 32.5275 233.085 31.9489 230.795 31.9489C228.506 31.9489 226.431 32.5275 224.572 33.6847C222.726 34.8419 221.255 36.5469 220.159 38.7997C219.076 41.0526 218.534 43.8163 218.534 47.0909C218.534 50.3655 219.076 53.1293 220.159 55.3821C221.255 57.6349 222.726 59.34 224.572 60.4972C226.431 61.6544 228.506 62.233 230.795 62.233C233.085 62.233 235.153 61.6544 237 60.4972C238.859 59.34 240.33 57.6349 241.413 55.3821C242.509 53.1293 243.057 50.3655 243.057 47.0909ZM254.598 76.6364V37.6364H258.808V42.142H259.325C259.645 41.6496 260.089 41.0218 260.655 40.2585C261.233 39.483 262.058 38.7936 263.129 38.1903C264.213 37.5748 265.678 37.267 267.524 37.267C269.912 37.267 272.018 37.8641 273.839 39.0582C275.661 40.2524 277.083 41.9451 278.105 44.1364C279.127 46.3277 279.638 48.9129 279.638 51.892C279.638 54.8958 279.127 57.4995 278.105 59.7031C277.083 61.8944 275.668 63.5933 273.858 64.7997C272.048 65.9938 269.962 66.5909 267.598 66.5909C265.776 66.5909 264.317 66.2893 263.222 65.6861C262.126 65.0705 261.283 64.375 260.692 63.5994C260.101 62.8116 259.645 62.1591 259.325 61.642H258.956V76.6364H254.598ZM258.882 51.8182C258.882 53.9602 259.196 55.8499 259.824 57.4872C260.452 59.1122 261.369 60.3864 262.575 61.3097C263.782 62.2206 265.259 62.6761 267.007 62.6761C268.829 62.6761 270.349 62.196 271.568 61.2358C272.799 60.2633 273.723 58.9583 274.338 57.321C274.966 55.6714 275.28 53.8371 275.28 51.8182C275.28 49.8239 274.972 48.0265 274.357 46.4261C273.753 44.8134 272.836 43.5393 271.605 42.6037C270.386 41.6558 268.854 41.1818 267.007 41.1818C265.234 41.1818 263.745 41.6312 262.538 42.5298C261.332 43.4162 260.421 44.6596 259.805 46.2599C259.19 47.848 258.882 49.7008 258.882 51.8182ZM298.621 37.6364V41.3295H283.922V37.6364H298.621ZM288.206 30.8409H292.564V57.875C292.564 59.1061 292.742 60.0294 293.099 60.6449C293.469 61.2481 293.937 61.6544 294.503 61.8636C295.081 62.0606 295.691 62.1591 296.331 62.1591C296.811 62.1591 297.205 62.1345 297.513 62.0852C297.821 62.0237 298.067 61.9744 298.251 61.9375L299.138 65.8523C298.842 65.9631 298.43 66.0739 297.901 66.1847C297.371 66.3078 296.7 66.3693 295.888 66.3693C294.657 66.3693 293.45 66.1046 292.268 65.5753C291.099 65.0459 290.126 64.2396 289.351 63.1562C288.588 62.0729 288.206 60.7064 288.206 59.0568V30.8409ZM305.176 66V37.6364H309.534V66H305.176ZM307.392 32.9091C306.543 32.9091 305.81 32.6198 305.195 32.0412C304.591 31.4626 304.29 30.767 304.29 29.9545C304.29 29.142 304.591 28.4465 305.195 27.8679C305.81 27.2893 306.543 27 307.392 27C308.241 27 308.968 27.2893 309.571 27.8679C310.187 28.4465 310.494 29.142 310.494 29.9545C310.494 30.767 310.187 31.4626 309.571 32.0412C308.968 32.6198 308.241 32.9091 307.392 32.9091ZM317.516 66V37.6364H321.726V42.0682H322.096C322.686 40.554 323.641 39.3783 324.958 38.5412C326.275 37.6918 327.857 37.267 329.703 37.267C331.575 37.267 333.132 37.6918 334.375 38.5412C335.631 39.3783 336.61 40.554 337.311 42.0682H337.607C338.333 40.6032 339.423 39.4399 340.875 38.5781C342.328 37.7041 344.07 37.267 346.101 37.267C348.637 37.267 350.712 38.0611 352.324 39.6491C353.937 41.2249 354.743 43.6809 354.743 47.017V66H350.385V47.017C350.385 44.9242 349.813 43.4285 348.668 42.5298C347.523 41.6312 346.175 41.1818 344.624 41.1818C342.63 41.1818 341.085 41.785 339.989 42.9915C338.893 44.1856 338.346 45.6998 338.346 47.5341V66H333.914V46.5739C333.914 44.9612 333.391 43.6624 332.344 42.6776C331.298 41.6804 329.95 41.1818 328.3 41.1818C327.167 41.1818 326.109 41.4834 325.124 42.0866C324.151 42.6899 323.364 43.527 322.76 44.598C322.169 45.6567 321.874 46.8816 321.874 48.2727V66H317.516ZM371.058 66.6648C369.261 66.6648 367.629 66.3262 366.164 65.6491C364.699 64.9598 363.536 63.9688 362.674 62.6761C361.813 61.3712 361.382 59.7955 361.382 57.9489C361.382 56.3239 361.702 55.0066 362.342 53.9972C362.982 52.9754 363.838 52.1752 364.909 51.5966C365.98 51.018 367.162 50.5871 368.454 50.304C369.759 50.0085 371.07 49.7746 372.387 49.6023C374.111 49.3807 375.508 49.2145 376.579 49.1037C377.663 48.9806 378.45 48.7775 378.943 48.4943C379.448 48.2112 379.7 47.7187 379.7 47.017V46.8693C379.7 45.0473 379.201 43.6316 378.204 42.6222C377.219 41.6127 375.724 41.108 373.717 41.108C371.636 41.108 370.005 41.5634 368.824 42.4744C367.642 43.3854 366.811 44.358 366.331 45.392L362.194 43.9148C362.933 42.1913 363.918 40.8494 365.149 39.8892C366.392 38.9167 367.746 38.2396 369.211 37.858C370.689 37.464 372.141 37.267 373.569 37.267C374.48 37.267 375.527 37.3778 376.708 37.5994C377.903 37.8087 379.054 38.2457 380.162 38.9105C381.282 39.5753 382.211 40.5786 382.95 41.9205C383.689 43.2623 384.058 45.0597 384.058 47.3125V66H379.7V62.1591H379.478C379.183 62.7746 378.69 63.4332 378.001 64.1349C377.312 64.8366 376.395 65.4337 375.25 65.9261C374.105 66.4186 372.708 66.6648 371.058 66.6648ZM371.723 62.75C373.446 62.75 374.899 62.4115 376.081 61.7344C377.275 61.0573 378.173 60.1832 378.777 59.1122C379.392 58.0412 379.7 56.9148 379.7 55.733V51.7443C379.515 51.9659 379.109 52.169 378.481 52.3537C377.866 52.526 377.152 52.6799 376.339 52.8153C375.539 52.9384 374.757 53.0492 373.994 53.1477C373.243 53.2339 372.634 53.3078 372.166 53.3693C371.033 53.517 369.975 53.7571 368.99 54.0895C368.017 54.4096 367.229 54.8958 366.626 55.5483C366.035 56.1884 365.74 57.0625 365.74 58.1705C365.74 59.6847 366.3 60.8295 367.42 61.6051C368.553 62.3684 369.987 62.75 371.723 62.75Z" fill="#4A9EFF"/>
<path d="M125.753 85.5H124.608C124.54 85.1707 124.422 84.8814 124.252 84.6321C124.086 84.3828 123.883 84.1735 123.643 84.0043C123.406 83.8319 123.143 83.7027 122.854 83.6165C122.564 83.5303 122.263 83.4872 121.949 83.4872C121.376 83.4872 120.858 83.6319 120.393 83.9212C119.931 84.2105 119.564 84.6367 119.29 85.1999C119.019 85.7631 118.884 86.4541 118.884 87.2727C118.884 88.0914 119.019 88.7823 119.29 89.3455C119.564 89.9087 119.931 90.335 120.393 90.6243C120.858 90.9136 121.376 91.0582 121.949 91.0582C122.263 91.0582 122.564 91.0152 122.854 90.929C123.143 90.8428 123.406 90.7151 123.643 90.5458C123.883 90.3735 124.086 90.1626 124.252 89.9134C124.422 89.661 124.54 89.3717 124.608 89.0455H125.753C125.667 89.5286 125.51 89.9611 125.282 90.3427C125.054 90.7243 124.771 91.049 124.433 91.3168C124.094 91.5814 123.714 91.783 123.292 91.9215C122.874 92.06 122.426 92.1293 121.949 92.1293C121.143 92.1293 120.425 91.9323 119.798 91.5384C119.17 91.1444 118.676 90.5843 118.316 89.858C117.956 89.1316 117.776 88.2699 117.776 87.2727C117.776 86.2756 117.956 85.4138 118.316 84.6875C118.676 83.9612 119.17 83.401 119.798 83.0071C120.425 82.6132 121.143 82.4162 121.949 82.4162C122.426 82.4162 122.874 82.4854 123.292 82.6239C123.714 82.7624 124.094 82.9656 124.433 83.2333C124.771 83.498 125.054 83.8211 125.282 84.2028C125.51 84.5813 125.667 85.0137 125.753 85.5ZM133.807 82.5455H134.952V88.8054C134.952 89.4517 134.8 90.0288 134.495 90.5366C134.194 91.0413 133.767 91.4399 133.217 91.7322C132.666 92.0215 132.019 92.1662 131.278 92.1662C130.536 92.1662 129.89 92.0215 129.339 91.7322C128.788 91.4399 128.36 91.0413 128.055 90.5366C127.754 90.0288 127.603 89.4517 127.603 88.8054V82.5455H128.748V88.7131C128.748 89.1747 128.849 89.5856 129.052 89.9457C129.256 90.3027 129.545 90.5843 129.92 90.7905C130.299 90.9936 130.751 91.0952 131.278 91.0952C131.804 91.0952 132.256 90.9936 132.635 90.7905C133.013 90.5843 133.303 90.3027 133.503 89.9457C133.706 89.5856 133.807 89.1747 133.807 88.7131V82.5455ZM136.722 83.5611V82.5455H143.812V83.5611H140.839V92H139.695V83.5611H136.722ZM145.062 83.5611V82.5455H152.153V83.5611H149.18V92H148.035V83.5611H145.062ZM155.065 82.5455V92H153.92V82.5455H155.065ZM164.858 82.5455V92H163.75L158.598 84.5767H158.506V92H157.361V82.5455H158.469L163.639 89.9872H163.731V82.5455H164.858ZM173.612 85.5C173.51 85.1892 173.376 84.9106 173.21 84.6644C173.047 84.4151 172.852 84.2028 172.624 84.0273C172.399 83.8519 172.144 83.718 171.858 83.6257C171.571 83.5334 171.257 83.4872 170.916 83.4872C170.356 83.4872 169.846 83.6319 169.388 83.9212C168.929 84.2105 168.565 84.6367 168.294 85.1999C168.023 85.7631 167.887 86.4541 167.887 87.2727C167.887 88.0914 168.024 88.7823 168.298 89.3455C168.572 89.9087 168.943 90.335 169.411 90.6243C169.879 90.9136 170.405 91.0582 170.99 91.0582C171.531 91.0582 172.008 90.9428 172.421 90.712C172.836 90.4781 173.159 90.1488 173.39 89.7241C173.624 89.2963 173.741 88.7931 173.741 88.2145L174.092 88.2884H171.248V87.2727H174.849V88.2884C174.849 89.067 174.683 89.7441 174.35 90.3196C174.021 90.8951 173.566 91.3414 172.984 91.6584C172.405 91.9723 171.741 92.1293 170.99 92.1293C170.153 92.1293 169.417 91.9323 168.783 91.5384C168.152 91.1444 167.66 90.5843 167.306 89.858C166.955 89.1316 166.779 88.2699 166.779 87.2727C166.779 86.5249 166.879 85.8524 167.08 85.2553C167.283 84.6552 167.569 84.1443 167.938 83.7227C168.308 83.301 168.745 82.9779 169.249 82.7532C169.754 82.5285 170.31 82.4162 170.916 82.4162C171.414 82.4162 171.879 82.4916 172.31 82.6424C172.744 82.7901 173.13 83.0009 173.469 83.2749C173.81 83.5457 174.095 83.8704 174.323 84.2489C174.551 84.6244 174.708 85.0414 174.794 85.5H173.612ZM188.443 87.2727C188.443 88.2699 188.263 89.1316 187.903 89.858C187.543 90.5843 187.049 91.1444 186.421 91.5384C185.794 91.9323 185.076 92.1293 184.27 92.1293C183.464 92.1293 182.747 91.9323 182.119 91.5384C181.491 91.1444 180.997 90.5843 180.637 89.858C180.277 89.1316 180.097 88.2699 180.097 87.2727C180.097 86.2756 180.277 85.4138 180.637 84.6875C180.997 83.9612 181.491 83.401 182.119 83.0071C182.747 82.6132 183.464 82.4162 184.27 82.4162C185.076 82.4162 185.794 82.6132 186.421 83.0071C187.049 83.401 187.543 83.9612 187.903 84.6875C188.263 85.4138 188.443 86.2756 188.443 87.2727ZM187.335 87.2727C187.335 86.4541 187.199 85.7631 186.925 85.1999C186.654 84.6367 186.286 84.2105 185.821 83.9212C185.36 83.6319 184.843 83.4872 184.27 83.4872C183.698 83.4872 183.179 83.6319 182.714 83.9212C182.253 84.2105 181.885 84.6367 181.611 85.1999C181.34 85.7631 181.205 86.4541 181.205 87.2727C181.205 88.0914 181.34 88.7823 181.611 89.3455C181.885 89.9087 182.253 90.335 182.714 90.6243C183.179 90.9136 183.698 91.0582 184.27 91.0582C184.843 91.0582 185.36 90.9136 185.821 90.6243C186.286 90.335 186.654 89.9087 186.925 89.3455C187.199 88.7823 187.335 88.0914 187.335 87.2727ZM190.369 92V82.5455H193.563C194.305 82.5455 194.911 82.6793 195.382 82.9471C195.856 83.2118 196.207 83.5703 196.435 84.0227C196.662 84.4751 196.776 84.9799 196.776 85.5369C196.776 86.094 196.662 86.6003 196.435 87.0558C196.21 87.5112 195.862 87.8744 195.391 88.1452C194.92 88.413 194.317 88.5469 193.582 88.5469H191.292V87.5312H193.545C194.052 87.5312 194.46 87.4435 194.768 87.2681C195.076 87.0927 195.299 86.8557 195.437 86.5572C195.579 86.2556 195.65 85.9155 195.65 85.5369C195.65 85.1584 195.579 84.8198 195.437 84.5213C195.299 84.2228 195.074 83.9889 194.763 83.8196C194.453 83.6473 194.04 83.5611 193.526 83.5611H191.513V92H190.369ZM198.103 83.5611V82.5455H205.194V83.5611H202.221V92H201.076V83.5611H198.103ZM208.106 82.5455V92H206.961V82.5455H208.106ZM210.402 82.5455H211.768L214.981 90.3935H215.092L218.305 82.5455H219.672V92H218.601V84.8168H218.508L215.554 92H214.52L211.565 84.8168H211.473V92H210.402V82.5455ZM223.112 82.5455V92H221.967V82.5455H223.112ZM225.094 92V91.169L230.19 83.5611H225.038V82.5455H231.557V83.3764L226.46 90.9844H231.612V92H225.094ZM233.92 92H232.72L236.192 82.5455H237.373L240.845 92H239.645L236.82 84.0412H236.746L233.92 92ZM234.364 88.3068H239.202V89.3224H234.364V88.3068ZM240.696 83.5611V82.5455H247.787V83.5611H244.814V92H243.669V83.5611H240.696ZM250.699 82.5455V92H249.554V82.5455H250.699ZM260.972 87.2727C260.972 88.2699 260.792 89.1316 260.432 89.858C260.072 90.5843 259.578 91.1444 258.95 91.5384C258.322 91.9323 257.605 92.1293 256.798 92.1293C255.992 92.1293 255.275 91.9323 254.647 91.5384C254.019 91.1444 253.525 90.5843 253.165 89.858C252.805 89.1316 252.625 88.2699 252.625 87.2727C252.625 86.2756 252.805 85.4138 253.165 84.6875C253.525 83.9612 254.019 83.401 254.647 83.0071C255.275 82.6132 255.992 82.4162 256.798 82.4162C257.605 82.4162 258.322 82.6132 258.95 83.0071C259.578 83.401 260.072 83.9612 260.432 84.6875C260.792 85.4138 260.972 86.2756 260.972 87.2727ZM259.864 87.2727C259.864 86.4541 259.727 85.7631 259.453 85.1999C259.182 84.6367 258.814 84.2105 258.35 83.9212C257.888 83.6319 257.371 83.4872 256.798 83.4872C256.226 83.4872 255.707 83.6319 255.243 83.9212C254.781 84.2105 254.413 84.6367 254.139 85.1999C253.869 85.7631 253.733 86.4541 253.733 87.2727C253.733 88.0914 253.869 88.7823 254.139 89.3455C254.413 89.9087 254.781 90.335 255.243 90.6243C255.707 90.9136 256.226 91.0582 256.798 91.0582C257.371 91.0582 257.888 90.9136 258.35 90.6243C258.814 90.335 259.182 89.9087 259.453 89.3455C259.727 88.7823 259.864 88.0914 259.864 87.2727ZM270.394 82.5455V92H269.286L264.134 84.5767H264.042V92H262.897V82.5455H264.005L269.175 89.9872H269.268V82.5455H270.394Z" fill="#64748B"/>
</g>
<defs>
<linearGradient id="paint0_linear_197_3" x1="10" y1="15" x2="9010" y2="9015" gradientUnits="userSpaceOnUse">
<stop stop-color="#1A6BCE"/>
<stop offset="1" stop-color="#0D4A9E"/>
</linearGradient>
<clipPath id="clip0_197_3">
<rect width="400" height="120" fill="white"/>
</clipPath>
</defs>
</svg>
