<svg width="400" height="120" viewBox="0 0 400 120" fill="none" xmlns="http://www.w3.org/2000/svg">
<g clip-path="url(#clip0_201_66)">
<path d="M82 15H28C18.0589 15 10 23.0589 10 33V87C10 96.9411 18.0589 105 28 105H82C91.9411 105 100 96.9411 100 87V33C100 23.0589 91.9411 15 82 15Z" fill="url(#paint0_linear_201_66)"/>
<path opacity="0.95" d="M84.25 27H25.75C23.6789 27 22 28.6789 22 30.75V45.75C22 47.8211 23.6789 49.5 25.75 49.5H84.25C86.3211 49.5 88 47.8211 88 45.75V30.75C88 28.6789 86.3211 27 84.25 27Z" fill="white"/>
<path opacity="0.75" d="M46.75 53.25H25.75C23.6789 53.25 22 54.9289 22 57V89.25C22 91.3211 23.6789 93 25.75 93H46.75C48.8211 93 50.5 91.3211 50.5 89.25V57C50.5 54.9289 48.8211 53.25 46.75 53.25Z" fill="white"/>
<path opacity="0.85" d="M84.25 53.25H58C55.9289 53.25 54.25 54.9289 54.25 57V66.75C54.25 68.8211 55.9289 70.5 58 70.5H84.25C86.3211 70.5 88 68.8211 88 66.75V57C88 54.9289 86.3211 53.25 84.25 53.25Z" fill="white"/>
<path opacity="0.55" d="M65.5 74.25H58C55.9289 74.25 54.25 75.9289 54.25 78V89.25C54.25 91.3211 55.9289 93 58 93H65.5C67.5711 93 69.25 91.3211 69.25 89.25V78C69.25 75.9289 67.5711 74.25 65.5 74.25Z" fill="white"/>
<path opacity="0.45" d="M84.25 74.25H76.75C74.6789 74.25 73 75.9289 73 78V89.25C73 91.3211 74.6789 93 76.75 93H84.25C86.3211 93 88 91.3211 88 89.25V78C88 75.9289 86.3211 74.25 84.25 74.25Z" fill="white"/>
<path d="M151.655 41.4219H143.567C143.419 40.3755 143.117 39.446 142.662 38.6335C142.206 37.8087 141.622 37.107 140.908 36.5284C140.194 35.9498 139.369 35.5066 138.433 35.1989C137.51 34.8911 136.507 34.7372 135.423 34.7372C133.466 34.7372 131.761 35.2235 130.308 36.196C128.856 37.1562 127.729 38.5597 126.929 40.4062C126.129 42.2405 125.729 44.4687 125.729 47.0909C125.729 49.7869 126.129 52.0521 126.929 53.8864C127.741 55.7206 128.874 57.1056 130.327 58.0412C131.779 58.9768 133.46 59.4446 135.368 59.4446C136.439 59.4446 137.43 59.303 138.341 59.0199C139.264 58.7367 140.083 58.3243 140.797 57.7827C141.511 57.2287 142.102 56.5578 142.57 55.7699C143.05 54.982 143.382 54.0833 143.567 53.0739L151.655 53.1108C151.446 54.8466 150.922 56.5208 150.085 58.1335C149.26 59.7339 148.146 61.1681 146.743 62.4361C145.352 63.6918 143.69 64.6889 141.757 65.4276C139.837 66.1539 137.664 66.517 135.239 66.517C131.866 66.517 128.849 65.7538 126.19 64.2273C123.544 62.7008 121.451 60.491 119.912 57.598C118.385 54.705 117.622 51.2027 117.622 47.0909C117.622 42.9669 118.398 39.4583 119.949 36.5653C121.5 33.6723 123.605 31.4687 126.264 29.9545C128.923 28.428 131.915 27.6648 135.239 27.6648C137.43 27.6648 139.461 27.9725 141.332 28.5881C143.216 29.2036 144.884 30.1023 146.337 31.2841C147.789 32.4536 148.971 33.8878 149.882 35.5866C150.805 37.2855 151.396 39.2306 151.655 41.4219ZM175.43 53.9233V37.6364H183.296V66H175.744V60.848H175.448C174.808 62.5099 173.743 63.8456 172.254 64.8551C170.776 65.8646 168.973 66.3693 166.843 66.3693C164.947 66.3693 163.279 65.9384 161.839 65.0767C160.398 64.215 159.272 62.9901 158.46 61.402C157.659 59.8139 157.253 57.9119 157.241 55.696V37.6364H165.107V54.2926C165.12 55.9669 165.569 57.2902 166.455 58.2628C167.342 59.2353 168.53 59.7216 170.019 59.7216C170.967 59.7216 171.853 59.5062 172.678 59.0753C173.503 58.6321 174.168 57.9796 174.673 57.1179C175.19 56.2562 175.442 55.1913 175.43 53.9233ZM204.675 37.6364V43.5455H187.594V37.6364H204.675ZM191.472 30.8409H199.338V57.2841C199.338 58.0104 199.449 58.5767 199.671 58.983C199.892 59.3769 200.2 59.6539 200.594 59.8139C201 59.974 201.468 60.054 201.998 60.054C202.367 60.054 202.736 60.0232 203.105 59.9616C203.475 59.8878 203.758 59.8324 203.955 59.7955L205.192 65.6491C204.798 65.7723 204.244 65.9138 203.53 66.0739C202.816 66.2462 201.948 66.3509 200.926 66.3878C199.031 66.4616 197.369 66.2093 195.941 65.6307C194.525 65.0521 193.423 64.1534 192.635 62.9347C191.847 61.7159 191.46 60.1771 191.472 58.3182V30.8409Z" fill="white"/>
<path d="M247.489 47.0909C247.489 51.0795 246.768 54.5265 245.328 57.4318C243.888 60.3371 241.912 62.5777 239.401 64.1534C236.889 65.7292 234.021 66.517 230.795 66.517C227.57 66.517 224.702 65.7292 222.19 64.1534C219.679 62.5777 217.703 60.3371 216.263 57.4318C214.822 54.5265 214.102 51.0795 214.102 47.0909C214.102 43.1023 214.822 39.6553 216.263 36.75C217.703 33.8447 219.679 31.6042 222.19 30.0284C224.702 28.4527 227.57 27.6648 230.795 27.6648C234.021 27.6648 236.889 28.4527 239.401 30.0284C241.912 31.6042 243.888 33.8447 245.328 36.75C246.768 39.6553 247.489 43.1023 247.489 47.0909ZM243.057 47.0909C243.057 43.8163 242.509 41.0526 241.413 38.7997C240.33 36.5469 238.859 34.8419 237 33.6847C235.153 32.5275 233.085 31.9489 230.795 31.9489C228.506 31.9489 226.431 32.5275 224.572 33.6847C222.726 34.8419 221.255 36.5469 220.159 38.7997C219.076 41.0526 218.534 43.8163 218.534 47.0909C218.534 50.3655 219.076 53.1293 220.159 55.3821C221.255 57.6349 222.726 59.34 224.572 60.4972C226.431 61.6544 228.506 62.233 230.795 62.233C233.085 62.233 235.153 61.6544 237 60.4972C238.859 59.34 240.33 57.6349 241.413 55.3821C242.509 53.1293 243.057 50.3655 243.057 47.0909ZM254.598 76.6364V37.6364H258.808V42.142H259.325C259.645 41.6496 260.089 41.0218 260.655 40.2585C261.233 39.483 262.058 38.7936 263.129 38.1903C264.213 37.5748 265.678 37.267 267.524 37.267C269.912 37.267 272.018 37.8641 273.839 39.0582C275.661 40.2524 277.083 41.9451 278.105 44.1364C279.127 46.3277 279.638 48.9129 279.638 51.892C279.638 54.8958 279.127 57.4995 278.105 59.7031C277.083 61.8944 275.668 63.5933 273.858 64.7997C272.048 65.9938 269.962 66.5909 267.598 66.5909C265.776 66.5909 264.317 66.2893 263.222 65.6861C262.126 65.0705 261.283 64.375 260.692 63.5994C260.101 62.8116 259.645 62.1591 259.325 61.642H258.956V76.6364H254.598ZM258.882 51.8182C258.882 53.9602 259.196 55.8499 259.824 57.4872C260.452 59.1122 261.369 60.3864 262.575 61.3097C263.782 62.2206 265.259 62.6761 267.007 62.6761C268.829 62.6761 270.349 62.196 271.568 61.2358C272.799 60.2633 273.723 58.9583 274.338 57.321C274.966 55.6714 275.28 53.8371 275.28 51.8182C275.28 49.8239 274.972 48.0265 274.357 46.4261C273.753 44.8134 272.836 43.5393 271.605 42.6037C270.386 41.6558 268.854 41.1818 267.007 41.1818C265.234 41.1818 263.745 41.6312 262.538 42.5298C261.332 43.4162 260.421 44.6596 259.805 46.2599C259.19 47.848 258.882 49.7008 258.882 51.8182ZM298.621 37.6364V41.3295H283.922V37.6364H298.621ZM288.206 30.8409H292.564V57.875C292.564 59.1061 292.742 60.0294 293.099 60.6449C293.469 61.2481 293.937 61.6544 294.503 61.8636C295.081 62.0606 295.691 62.1591 296.331 62.1591C296.811 62.1591 297.205 62.1345 297.513 62.0852C297.821 62.0237 298.067 61.9744 298.251 61.9375L299.138 65.8523C298.842 65.9631 298.43 66.0739 297.901 66.1847C297.371 66.3078 296.7 66.3693 295.888 66.3693C294.657 66.3693 293.45 66.1046 292.268 65.5753C291.099 65.0459 290.126 64.2396 289.351 63.1562C288.588 62.0729 288.206 60.7064 288.206 59.0568V30.8409ZM305.176 66V37.6364H309.534V66H305.176ZM307.392 32.9091C306.543 32.9091 305.81 32.6198 305.195 32.0412C304.591 31.4626 304.29 30.767 304.29 29.9545C304.29 29.142 304.591 28.4465 305.195 27.8679C305.81 27.2893 306.543 27 307.392 27C308.241 27 308.968 27.2893 309.571 27.8679C310.187 28.4465 310.494 29.142 310.494 29.9545C310.494 30.767 310.187 31.4626 309.571 32.0412C308.968 32.6198 308.241 32.9091 307.392 32.9091ZM317.516 66V37.6364H321.726V42.0682H322.096C322.686 40.554 323.641 39.3783 324.958 38.5412C326.275 37.6918 327.857 37.267 329.703 37.267C331.575 37.267 333.132 37.6918 334.375 38.5412C335.631 39.3783 336.61 40.554 337.311 42.0682H337.607C338.333 40.6032 339.423 39.4399 340.875 38.5781C342.328 37.7041 344.07 37.267 346.101 37.267C348.637 37.267 350.712 38.0611 352.324 39.6491C353.937 41.2249 354.743 43.6809 354.743 47.017V66H350.385V47.017C350.385 44.9242 349.813 43.4285 348.668 42.5298C347.523 41.6312 346.175 41.1818 344.624 41.1818C342.63 41.1818 341.085 41.785 339.989 42.9915C338.893 44.1856 338.346 45.6998 338.346 47.5341V66H333.914V46.5739C333.914 44.9612 333.391 43.6624 332.344 42.6776C331.298 41.6804 329.95 41.1818 328.3 41.1818C327.167 41.1818 326.109 41.4834 325.124 42.0866C324.151 42.6899 323.364 43.527 322.76 44.598C322.169 45.6567 321.874 46.8816 321.874 48.2727V66H317.516ZM371.058 66.6648C369.261 66.6648 367.629 66.3262 366.164 65.6491C364.699 64.9598 363.536 63.9688 362.674 62.6761C361.813 61.3712 361.382 59.7955 361.382 57.9489C361.382 56.3239 361.702 55.0066 362.342 53.9972C362.982 52.9754 363.838 52.1752 364.909 51.5966C365.98 51.018 367.162 50.5871 368.454 50.304C369.759 50.0085 371.07 49.7746 372.387 49.6023C374.111 49.3807 375.508 49.2145 376.579 49.1037C377.663 48.9806 378.45 48.7775 378.943 48.4943C379.448 48.2112 379.7 47.7187 379.7 47.017V46.8693C379.7 45.0473 379.201 43.6316 378.204 42.6222C377.219 41.6127 375.724 41.108 373.717 41.108C371.636 41.108 370.005 41.5634 368.824 42.4744C367.642 43.3854 366.811 44.358 366.331 45.392L362.194 43.9148C362.933 42.1913 363.918 40.8494 365.149 39.8892C366.392 38.9167 367.746 38.2396 369.211 37.858C370.689 37.464 372.141 37.267 373.569 37.267C374.48 37.267 375.527 37.3778 376.708 37.5994C377.903 37.8087 379.054 38.2457 380.162 38.9105C381.282 39.5753 382.211 40.5786 382.95 41.9205C383.689 43.2623 384.058 45.0597 384.058 47.3125V66H379.7V62.1591H379.478C379.183 62.7746 378.69 63.4332 378.001 64.1349C377.312 64.8366 376.395 65.4337 375.25 65.9261C374.105 66.4186 372.708 66.6648 371.058 66.6648ZM371.723 62.75C373.446 62.75 374.899 62.4115 376.081 61.7344C377.275 61.0573 378.173 60.1832 378.777 59.1122C379.392 58.0412 379.7 56.9148 379.7 55.733V51.7443C379.515 51.9659 379.109 52.169 378.481 52.3537C377.866 52.526 377.152 52.6799 376.339 52.8153C375.539 52.9384 374.757 53.0492 373.994 53.1477C373.243 53.2339 372.634 53.3078 372.166 53.3693C371.033 53.517 369.975 53.7571 368.99 54.0895C368.017 54.4096 367.229 54.8958 366.626 55.5483C366.035 56.1884 365.74 57.0625 365.74 58.1705C365.74 59.6847 366.3 60.8295 367.42 61.6051C368.553 62.3684 369.987 62.75 371.723 62.75Z" fill="#4A9EFF"/>
<path d="M122.213 82.224H128.635V83.16H122.213V82.224ZM128.232 82.224H129.22C129.22 82.224 129.22 82.2587 129.22 82.328C129.22 82.3973 129.22 82.4753 129.22 82.562C129.22 82.6487 129.22 82.718 129.22 82.77C129.177 84.434 129.133 85.8423 129.09 86.995C129.047 88.139 128.995 89.075 128.934 89.803C128.873 90.531 128.8 91.09 128.713 91.48C128.635 91.87 128.531 92.1473 128.401 92.312C128.262 92.5113 128.111 92.65 127.946 92.728C127.79 92.8147 127.604 92.871 127.387 92.897C127.17 92.923 126.893 92.936 126.555 92.936C126.226 92.936 125.888 92.923 125.541 92.897C125.532 92.7497 125.502 92.5807 125.45 92.39C125.398 92.1993 125.324 92.0347 125.229 91.896C125.619 91.9307 125.97 91.9523 126.282 91.961C126.594 91.961 126.824 91.961 126.971 91.961C127.092 91.961 127.192 91.948 127.27 91.922C127.348 91.8873 127.422 91.8223 127.491 91.727C127.595 91.6057 127.682 91.3543 127.751 90.973C127.829 90.5917 127.894 90.0457 127.946 89.335C128.007 88.6157 128.059 87.697 128.102 86.579C128.154 85.4523 128.197 84.083 128.232 82.471V82.224ZM117.377 85.266L122.863 84.109L123.032 84.98L117.546 86.15L117.377 85.266ZM118.95 81.444H119.912V89.088C119.912 89.322 119.938 89.4737 119.99 89.543C120.042 89.6037 120.155 89.634 120.328 89.634C120.363 89.634 120.432 89.634 120.536 89.634C120.64 89.634 120.753 89.634 120.874 89.634C121.004 89.634 121.125 89.634 121.238 89.634C121.351 89.634 121.433 89.634 121.485 89.634C121.598 89.634 121.68 89.5863 121.732 89.491C121.793 89.387 121.836 89.2007 121.862 88.932C121.888 88.6633 121.905 88.2777 121.914 87.775C122.027 87.8617 122.165 87.944 122.33 88.022C122.503 88.1 122.655 88.1563 122.785 88.191C122.75 88.7977 122.694 89.2743 122.616 89.621C122.547 89.959 122.425 90.2017 122.252 90.349C122.087 90.4877 121.858 90.557 121.563 90.557C121.511 90.557 121.42 90.557 121.29 90.557C121.16 90.557 121.017 90.557 120.861 90.557C120.714 90.557 120.575 90.557 120.445 90.557C120.315 90.557 120.228 90.557 120.185 90.557C119.856 90.557 119.6 90.5137 119.418 90.427C119.245 90.3403 119.123 90.193 119.054 89.985C118.985 89.7683 118.95 89.465 118.95 89.075V81.444ZM124.514 82.64H125.489C125.472 83.498 125.441 84.3387 125.398 85.162C125.355 85.9853 125.268 86.7827 125.138 87.554C125.008 88.3253 124.809 89.0533 124.54 89.738C124.271 90.414 123.912 91.038 123.461 91.61C123.01 92.1733 122.43 92.6673 121.719 93.092C121.641 92.962 121.533 92.8233 121.394 92.676C121.264 92.5287 121.134 92.4117 121.004 92.325C121.68 91.9437 122.23 91.493 122.655 90.973C123.088 90.453 123.426 89.8767 123.669 89.244C123.92 88.6113 124.102 87.9353 124.215 87.216C124.328 86.4967 124.401 85.7513 124.436 84.98C124.471 84.2087 124.497 83.4287 124.514 82.64ZM132.262 84.993H136.799V85.838H132.262V84.993ZM131.586 90.726H136.669V91.584H131.586V90.726ZM131.053 81.548H131.924V92.572H131.053V81.548ZM134.134 81.171H134.966V90.414H134.134V81.171ZM134.173 85.435L134.732 85.682C134.576 86.1587 134.377 86.6527 134.134 87.164C133.891 87.6753 133.627 88.1563 133.341 88.607C133.055 89.049 132.76 89.4173 132.457 89.712C132.414 89.5907 132.349 89.452 132.262 89.296C132.184 89.14 132.106 89.01 132.028 88.906C132.305 88.6547 132.578 88.3383 132.847 87.957C133.124 87.567 133.376 87.1553 133.601 86.722C133.835 86.2887 134.026 85.8597 134.173 85.435ZM136.019 81.951L136.799 82.185C136.643 82.575 136.474 82.9823 136.292 83.407C136.119 83.8317 135.954 84.1913 135.798 84.486L135.2 84.278C135.295 84.0613 135.395 83.8187 135.499 83.55C135.603 83.2727 135.698 82.9953 135.785 82.718C135.88 82.432 135.958 82.1763 136.019 81.951ZM132.431 82.185L133.068 81.977C133.224 82.3323 133.358 82.7223 133.471 83.147C133.584 83.563 133.653 83.9227 133.679 84.226L132.99 84.46C132.973 84.148 132.912 83.7797 132.808 83.355C132.704 82.9303 132.578 82.5403 132.431 82.185ZM134.914 86.293C134.992 86.3623 135.118 86.475 135.291 86.631C135.464 86.7783 135.646 86.943 135.837 87.125C136.036 87.307 136.218 87.476 136.383 87.632C136.556 87.7793 136.678 87.892 136.747 87.97L136.188 88.646C136.11 88.5333 135.993 88.386 135.837 88.204C135.681 88.022 135.516 87.8313 135.343 87.632C135.17 87.4327 135.001 87.2463 134.836 87.073C134.671 86.8997 134.541 86.7653 134.446 86.67L134.914 86.293ZM137.8 85.448H142.597V86.358H137.8V85.448ZM140.205 85.929H141.128V93.04H140.205V85.929ZM137.345 82.198L138.541 82.562C138.524 82.6487 138.433 82.705 138.268 82.731V86.761C138.268 87.2463 138.246 87.7663 138.203 88.321C138.16 88.867 138.069 89.426 137.93 89.998C137.8 90.5613 137.605 91.116 137.345 91.662C137.094 92.1993 136.756 92.6977 136.331 93.157C136.288 93.079 136.223 92.9923 136.136 92.897C136.058 92.8103 135.971 92.728 135.876 92.65C135.789 92.572 135.707 92.5157 135.629 92.481C136.149 91.9263 136.53 91.324 136.773 90.674C137.016 90.0153 137.172 89.348 137.241 88.672C137.31 87.996 137.345 87.3547 137.345 86.748V82.198ZM141.596 81.288L142.389 82.003C141.99 82.185 141.531 82.354 141.011 82.51C140.5 82.666 139.971 82.809 139.425 82.939C138.888 83.0603 138.363 83.1687 137.852 83.264C137.826 83.16 137.783 83.0343 137.722 82.887C137.661 82.7397 137.601 82.614 137.54 82.51C138.025 82.4147 138.519 82.302 139.022 82.172C139.533 82.042 140.014 81.9033 140.465 81.756C140.916 81.6 141.293 81.444 141.596 81.288ZM146.25 83.745V84.668H152.776V83.745H146.25ZM146.25 82.185V83.095H152.776V82.185H146.25ZM145.314 81.496H153.751V85.357H145.314V81.496ZM143.754 86.085H155.22V86.904H143.754V86.085ZM149.539 87.71H154.154V88.503H149.539V87.71ZM145.457 87.788H148.655V88.529H145.457V87.788ZM145.457 89.439H148.655V90.167H145.457V89.439ZM150.891 88.438C151.272 89.374 151.862 90.18 152.659 90.856C153.465 91.5233 154.418 91.9957 155.519 92.273C155.458 92.3337 155.389 92.4073 155.311 92.494C155.233 92.5893 155.159 92.6803 155.09 92.767C155.029 92.8623 154.977 92.949 154.934 93.027C153.79 92.689 152.806 92.1473 151.983 91.402C151.168 90.648 150.544 89.738 150.111 88.672L150.891 88.438ZM153.855 87.71H154.037L154.206 87.671L154.804 87.918C154.518 88.802 154.111 89.5733 153.582 90.232C153.053 90.8907 152.447 91.4497 151.762 91.909C151.077 92.3597 150.358 92.7107 149.604 92.962C149.552 92.8493 149.47 92.715 149.357 92.559C149.253 92.403 149.153 92.2817 149.058 92.195C149.578 92.0477 150.085 91.8397 150.579 91.571C151.082 91.3023 151.545 90.986 151.97 90.622C152.403 90.258 152.78 89.8463 153.101 89.387C153.43 88.919 153.682 88.412 153.855 87.866V87.71ZM143.637 91.428C144.062 91.3847 144.543 91.337 145.08 91.285C145.626 91.233 146.202 91.1723 146.809 91.103C147.416 91.0337 148.022 90.9643 148.629 90.895L148.642 91.701C147.758 91.8137 146.887 91.922 146.029 92.026C145.171 92.13 144.404 92.221 143.728 92.299L143.637 91.428ZM148.148 86.345H149.084V93.04H148.148V86.345ZM144.885 86.371H145.782V91.649H144.885V86.371ZM159.198 86.215V90.817H158.249V87.125H156.598V86.215H159.198ZM159.198 90.414C159.501 90.8907 159.935 91.246 160.498 91.48C161.061 91.714 161.724 91.8483 162.487 91.883C162.851 91.8917 163.293 91.9003 163.813 91.909C164.333 91.909 164.879 91.909 165.451 91.909C166.023 91.9003 166.578 91.8873 167.115 91.87C167.652 91.8527 168.116 91.831 168.506 91.805C168.471 91.8743 168.432 91.9653 168.389 92.078C168.346 92.1907 168.307 92.3077 168.272 92.429C168.237 92.5503 168.211 92.663 168.194 92.767C167.83 92.7757 167.397 92.7843 166.894 92.793C166.4 92.8103 165.884 92.819 165.347 92.819C164.81 92.8277 164.29 92.8277 163.787 92.819C163.284 92.8103 162.855 92.8017 162.5 92.793C161.642 92.7583 160.91 92.6197 160.303 92.377C159.696 92.1343 159.189 91.7573 158.782 91.246C158.496 91.5233 158.201 91.8007 157.898 92.078C157.603 92.364 157.296 92.65 156.975 92.936L156.468 91.974C156.754 91.766 157.062 91.5277 157.391 91.259C157.729 90.9817 158.045 90.7 158.34 90.414H159.198ZM156.728 81.951L157.469 81.405C157.738 81.6043 158.006 81.8297 158.275 82.081C158.552 82.3323 158.804 82.5837 159.029 82.835C159.263 83.0863 159.445 83.3203 159.575 83.537L158.782 84.148C158.661 83.9313 158.487 83.693 158.262 83.433C158.037 83.1643 157.79 82.9043 157.521 82.653C157.261 82.393 156.997 82.159 156.728 81.951ZM159.926 82.172H168.311V82.965H159.926V82.172ZM161.759 85.968H166.4V86.631H161.759V85.968ZM163.553 81.08H164.502V82.653H163.553V81.08ZM163.696 85.019H164.437V87.762H163.696V85.019ZM160.407 84.291H167.297V85.084H161.304V91.116H160.407V84.291ZM162.344 87.567H163.059V90.427H162.344V87.567ZM162.721 87.567H165.841V89.933H162.721V89.309H165.113V88.191H162.721V87.567ZM166.933 84.291H167.843V90.063C167.843 90.3057 167.813 90.4963 167.752 90.635C167.7 90.765 167.592 90.869 167.427 90.947C167.245 91.0077 167.02 91.0467 166.751 91.064C166.482 91.0813 166.153 91.09 165.763 91.09C165.746 90.9687 165.707 90.83 165.646 90.674C165.585 90.5093 165.525 90.3707 165.464 90.258C165.759 90.2667 166.023 90.271 166.257 90.271C166.491 90.271 166.651 90.271 166.738 90.271C166.816 90.2623 166.868 90.245 166.894 90.219C166.92 90.193 166.933 90.141 166.933 90.063V84.291ZM165.711 82.809L166.621 83.043C166.491 83.3117 166.352 83.576 166.205 83.836C166.066 84.0873 165.936 84.304 165.815 84.486L165.048 84.278C165.161 84.0613 165.278 83.8143 165.399 83.537C165.529 83.2597 165.633 83.017 165.711 82.809ZM161.564 83.082L162.37 82.874C162.509 83.0733 162.634 83.303 162.747 83.563C162.868 83.823 162.951 84.0483 162.994 84.239L162.136 84.473C162.101 84.2823 162.028 84.057 161.915 83.797C161.811 83.537 161.694 83.2987 161.564 83.082ZM175.318 81.392H176.306V91.051C176.306 91.2937 176.328 91.48 176.371 91.61C176.414 91.7313 176.497 91.818 176.618 91.87C176.748 91.9133 176.934 91.935 177.177 91.935C177.264 91.935 177.42 91.935 177.645 91.935C177.879 91.935 178.135 91.935 178.412 91.935C178.698 91.935 178.962 91.935 179.205 91.935C179.448 91.935 179.621 91.935 179.725 91.935C179.968 91.935 180.145 91.87 180.258 91.74C180.379 91.6013 180.466 91.3587 180.518 91.012C180.579 90.6653 180.622 90.18 180.648 89.556C180.769 89.6427 180.917 89.7293 181.09 89.816C181.272 89.894 181.432 89.946 181.571 89.972C181.528 90.6827 181.45 91.2503 181.337 91.675C181.233 92.091 181.06 92.39 180.817 92.572C180.583 92.754 180.236 92.845 179.777 92.845C179.708 92.845 179.582 92.845 179.4 92.845C179.227 92.845 179.019 92.845 178.776 92.845C178.542 92.845 178.308 92.845 178.074 92.845C177.84 92.845 177.632 92.845 177.45 92.845C177.277 92.845 177.16 92.845 177.099 92.845C176.648 92.845 176.293 92.793 176.033 92.689C175.773 92.585 175.587 92.3987 175.474 92.13C175.37 91.87 175.318 91.5017 175.318 91.025V81.392ZM180.206 83.55L180.908 84.382C180.475 84.746 179.985 85.1057 179.439 85.461C178.893 85.8077 178.321 86.1457 177.723 86.475C177.134 86.8043 176.553 87.1163 175.981 87.411C175.946 87.2983 175.886 87.1727 175.799 87.034C175.721 86.8867 175.647 86.7567 175.578 86.644C176.133 86.3493 176.696 86.0287 177.268 85.682C177.84 85.3353 178.382 84.98 178.893 84.616C179.404 84.2433 179.842 83.888 180.206 83.55ZM173.069 81.275L174.018 81.6C173.689 82.354 173.303 83.095 172.861 83.823C172.419 84.551 171.942 85.2357 171.431 85.877C170.928 86.5097 170.404 87.0687 169.858 87.554C169.832 87.4673 169.78 87.3633 169.702 87.242C169.633 87.1207 169.559 86.9993 169.481 86.878C169.403 86.748 169.334 86.644 169.273 86.566C169.776 86.15 170.261 85.6647 170.729 85.11C171.206 84.5467 171.643 83.94 172.042 83.29C172.441 82.6313 172.783 81.9597 173.069 81.275ZM171.574 84.681L172.536 83.719L172.549 83.745V93.014H171.574V84.681ZM185.432 91.532C186.515 91.09 187.43 90.5397 188.175 89.881C188.92 89.2137 189.536 88.5203 190.021 87.801C190.524 87.0557 190.892 86.3147 191.126 85.578C191.369 84.8327 191.542 84.161 191.646 83.563C191.681 83.3897 191.707 83.199 191.724 82.991C191.75 82.783 191.759 82.6183 191.75 82.497L193.05 82.679C192.998 82.8523 192.946 83.0387 192.894 83.238C192.851 83.4287 192.816 83.5847 192.79 83.706C192.643 84.4773 192.426 85.2617 192.14 86.059C191.863 86.8477 191.486 87.6103 191.009 88.347C190.506 89.127 189.878 89.868 189.124 90.57C188.37 91.2633 187.464 91.857 186.407 92.351L185.432 91.532ZM184.639 82.653C184.786 82.8697 184.96 83.1427 185.159 83.472C185.358 83.7927 185.562 84.135 185.77 84.499C185.987 84.863 186.186 85.2097 186.368 85.539C186.559 85.8683 186.71 86.137 186.823 86.345L185.783 86.93C185.644 86.644 185.48 86.3233 185.289 85.968C185.098 85.6127 184.899 85.2573 184.691 84.902C184.483 84.538 184.284 84.2087 184.093 83.914C183.911 83.6107 183.751 83.3637 183.612 83.173L184.639 82.653ZM206.193 83.355C206.15 83.4503 206.111 83.55 206.076 83.654C206.05 83.758 206.024 83.875 205.998 84.005C205.929 84.3517 205.838 84.733 205.725 85.149C205.612 85.5563 205.474 85.981 205.309 86.423C205.153 86.8563 204.967 87.281 204.75 87.697C204.542 88.1043 204.312 88.4727 204.061 88.802C203.662 89.3047 203.22 89.777 202.735 90.219C202.25 90.6523 201.695 91.0423 201.071 91.389C200.447 91.7357 199.736 92.0347 198.939 92.286L198.055 91.311C198.904 91.0943 199.637 90.8343 200.252 90.531C200.876 90.219 201.422 89.8637 201.89 89.465C202.358 89.0663 202.77 88.6373 203.125 88.178C203.437 87.788 203.706 87.3417 203.931 86.839C204.165 86.3363 204.356 85.8337 204.503 85.331C204.659 84.8197 204.767 84.356 204.828 83.94C204.707 83.94 204.477 83.94 204.139 83.94C203.801 83.94 203.402 83.94 202.943 83.94C202.484 83.94 202.003 83.94 201.5 83.94C201.006 83.94 200.529 83.94 200.07 83.94C199.611 83.94 199.212 83.94 198.874 83.94C198.536 83.94 198.306 83.94 198.185 83.94C197.925 83.94 197.687 83.9443 197.47 83.953C197.253 83.9617 197.058 83.9703 196.885 83.979V82.835C197.006 82.8437 197.141 82.8567 197.288 82.874C197.435 82.8913 197.587 82.9043 197.743 82.913C197.899 82.913 198.046 82.913 198.185 82.913C198.289 82.913 198.475 82.913 198.744 82.913C199.013 82.913 199.329 82.913 199.693 82.913C200.066 82.913 200.46 82.913 200.876 82.913C201.301 82.913 201.717 82.913 202.124 82.913C202.54 82.913 202.926 82.913 203.281 82.913C203.645 82.913 203.953 82.913 204.204 82.913C204.455 82.913 204.624 82.913 204.711 82.913C204.806 82.913 204.915 82.913 205.036 82.913C205.157 82.9043 205.279 82.8827 205.4 82.848L206.193 83.355ZM212.381 90.856C212.381 90.7347 212.381 90.492 212.381 90.128C212.381 89.7553 212.381 89.3177 212.381 88.815C212.381 88.3037 212.381 87.7707 212.381 87.216C212.381 86.6527 212.381 86.1067 212.381 85.578C212.381 85.0493 212.381 84.5813 212.381 84.174C212.381 83.7667 212.381 83.472 212.381 83.29C212.381 83.108 212.372 82.887 212.355 82.627C212.338 82.367 212.312 82.1373 212.277 81.938H213.551C213.534 82.1287 213.512 82.354 213.486 82.614C213.469 82.874 213.46 83.0993 213.46 83.29C213.46 83.628 213.46 84.0353 213.46 84.512C213.46 84.98 213.46 85.4827 213.46 86.02C213.46 86.5487 213.46 87.0773 213.46 87.606C213.469 88.126 213.473 88.6157 213.473 89.075C213.473 89.5257 213.473 89.9113 213.473 90.232C213.473 90.544 213.473 90.752 213.473 90.856C213.473 90.9947 213.473 91.155 213.473 91.337C213.482 91.519 213.495 91.7053 213.512 91.896C213.529 92.078 213.542 92.2427 213.551 92.39H212.29C212.325 92.182 212.346 91.935 212.355 91.649C212.372 91.363 212.381 91.0987 212.381 90.856ZM213.239 85.344C213.664 85.474 214.132 85.63 214.643 85.812C215.163 85.9853 215.692 86.1717 216.229 86.371C216.766 86.5703 217.273 86.774 217.75 86.982C218.235 87.1813 218.656 87.372 219.011 87.554L218.569 88.659C218.196 88.451 217.776 88.2473 217.308 88.048C216.84 87.84 216.359 87.6363 215.865 87.437C215.38 87.2377 214.907 87.06 214.448 86.904C213.997 86.7393 213.594 86.605 213.239 86.501V85.344ZM228.033 81.587C228.007 81.7863 227.985 81.964 227.968 82.12C227.959 82.276 227.955 82.4233 227.955 82.562C227.955 82.666 227.955 82.8263 227.955 83.043C227.955 83.2597 227.955 83.485 227.955 83.719C227.955 83.953 227.955 84.148 227.955 84.304H226.85C226.85 84.1307 226.85 83.927 226.85 83.693C226.85 83.459 226.85 83.238 226.85 83.03C226.85 82.822 226.85 82.666 226.85 82.562C226.85 82.4233 226.846 82.276 226.837 82.12C226.837 81.964 226.82 81.7863 226.785 81.587H228.033ZM232.466 84.109C232.431 84.2043 232.397 84.33 232.362 84.486C232.327 84.6333 232.297 84.7677 232.271 84.889C232.236 85.149 232.18 85.4393 232.102 85.76C232.033 86.0807 231.946 86.4187 231.842 86.774C231.738 87.1207 231.617 87.4673 231.478 87.814C231.339 88.152 231.179 88.4813 230.997 88.802C230.676 89.3653 230.265 89.8853 229.762 90.362C229.259 90.8387 228.679 91.2547 228.02 91.61C227.37 91.9653 226.646 92.2557 225.849 92.481L225.004 91.506C225.221 91.4713 225.446 91.4237 225.68 91.363C225.923 91.2937 226.148 91.22 226.356 91.142C226.789 91.0033 227.227 90.8083 227.669 90.557C228.111 90.297 228.523 89.998 228.904 89.66C229.294 89.3133 229.619 88.9363 229.879 88.529C230.113 88.1563 230.312 87.749 230.477 87.307C230.65 86.865 230.789 86.4187 230.893 85.968C230.997 85.5173 231.071 85.1057 231.114 84.733H223.847C223.847 84.8717 223.847 85.0493 223.847 85.266C223.847 85.4827 223.847 85.7123 223.847 85.955C223.847 86.189 223.847 86.41 223.847 86.618C223.847 86.8173 223.847 86.9647 223.847 87.06C223.847 87.1813 223.851 87.3157 223.86 87.463C223.869 87.6103 223.882 87.736 223.899 87.84H222.768C222.785 87.7187 222.794 87.58 222.794 87.424C222.803 87.268 222.807 87.1293 222.807 87.008C222.807 86.904 222.807 86.748 222.807 86.54C222.807 86.332 222.807 86.111 222.807 85.877C222.807 85.6343 222.807 85.409 222.807 85.201C222.807 84.993 222.807 84.8327 222.807 84.72C222.807 84.5813 222.803 84.4167 222.794 84.226C222.794 84.0353 222.785 83.8663 222.768 83.719C222.959 83.7363 223.149 83.7493 223.34 83.758C223.539 83.7667 223.752 83.771 223.977 83.771H230.867C231.11 83.771 231.296 83.7623 231.426 83.745C231.565 83.719 231.677 83.693 231.764 83.667L232.466 84.109ZM236.652 85.279C236.791 85.2963 236.947 85.3093 237.12 85.318C237.302 85.3267 237.445 85.331 237.549 85.331H243.529C243.694 85.331 243.854 85.3267 244.01 85.318C244.166 85.3093 244.313 85.2963 244.452 85.279V86.319C244.313 86.3017 244.162 86.293 243.997 86.293C243.832 86.293 243.676 86.293 243.529 86.293H237.549C237.445 86.293 237.302 86.293 237.12 86.293C236.947 86.293 236.791 86.3017 236.652 86.319V85.279ZM239.941 91.61V85.864H240.994V91.61H239.941ZM236.015 90.999C236.171 91.0163 236.327 91.0337 236.483 91.051C236.648 91.0597 236.804 91.064 236.951 91.064H244.14C244.296 91.064 244.448 91.0597 244.595 91.051C244.742 91.0337 244.881 91.0163 245.011 90.999V92.091C244.881 92.0737 244.729 92.0607 244.556 92.052C244.383 92.052 244.244 92.052 244.14 92.052H236.951C236.812 92.052 236.661 92.052 236.496 92.052C236.34 92.0607 236.18 92.0737 236.015 92.091V90.999ZM259.103 83.212C259.051 83.2727 258.99 83.3463 258.921 83.433C258.86 83.5197 258.804 83.602 258.752 83.68C258.587 83.9747 258.34 84.3387 258.011 84.772C257.69 85.1967 257.318 85.6343 256.893 86.085C256.468 86.527 256.009 86.9213 255.515 87.268L254.657 86.579C254.96 86.4057 255.255 86.1977 255.541 85.955C255.836 85.7037 256.109 85.4437 256.36 85.175C256.62 84.8977 256.845 84.629 257.036 84.369C257.235 84.1003 257.391 83.8663 257.504 83.667C257.365 83.667 257.14 83.667 256.828 83.667C256.525 83.667 256.161 83.667 255.736 83.667C255.32 83.667 254.874 83.667 254.397 83.667C253.92 83.667 253.448 83.667 252.98 83.667C252.512 83.667 252.074 83.667 251.667 83.667C251.26 83.667 250.917 83.667 250.64 83.667C250.363 83.667 250.181 83.667 250.094 83.667C249.851 83.667 249.609 83.6757 249.366 83.693C249.123 83.7017 248.872 83.719 248.612 83.745V82.562C248.837 82.5967 249.08 82.627 249.34 82.653C249.6 82.6703 249.851 82.679 250.094 82.679C250.181 82.679 250.367 82.679 250.653 82.679C250.939 82.679 251.286 82.679 251.693 82.679C252.109 82.679 252.56 82.679 253.045 82.679C253.53 82.679 254.011 82.679 254.488 82.679C254.973 82.679 255.428 82.679 255.853 82.679C256.278 82.679 256.637 82.679 256.932 82.679C257.235 82.679 257.443 82.679 257.556 82.679C257.643 82.679 257.742 82.679 257.855 82.679C257.976 82.6703 258.093 82.6573 258.206 82.64C258.319 82.6227 258.405 82.6097 258.466 82.601L259.103 83.212ZM253.916 84.928C253.916 85.63 253.894 86.2887 253.851 86.904C253.808 87.5193 253.721 88.0957 253.591 88.633C253.461 89.1703 253.262 89.6687 252.993 90.128C252.733 90.5787 252.382 91.0033 251.94 91.402C251.498 91.792 250.948 92.1517 250.289 92.481L249.327 91.701C249.509 91.6403 249.704 91.5623 249.912 91.467C250.12 91.363 250.315 91.246 250.497 91.116C251.008 90.8127 251.416 90.4703 251.719 90.089C252.022 89.7077 252.248 89.296 252.395 88.854C252.551 88.4033 252.655 87.931 252.707 87.437C252.768 86.9343 252.798 86.4143 252.798 85.877C252.798 85.7123 252.794 85.5563 252.785 85.409C252.785 85.2617 252.772 85.1013 252.746 84.928H253.916Z" fill="#64748B"/>
</g>
<defs>
<linearGradient id="paint0_linear_201_66" x1="10" y1="15" x2="9010" y2="9015" gradientUnits="userSpaceOnUse">
<stop stop-color="#1A6BCE"/>
<stop offset="1" stop-color="#0D4A9E"/>
</linearGradient>
<clipPath id="clip0_201_66">
<rect width="400" height="120" fill="white"/>
</clipPath>
</defs>
</svg>
